<svg width="
38" height="54" viewBox="0 0 38 54" fill="none" xmlns="http://www.w3.org/2000/svg">
<path d="M5.5 31.5V28.5C5.5 26.9087 6.13214 25.3826 7.25736 24.2574C8.38258 23.1321 9.9087 22.5 11.5 22.5H17.5C19.0913 22.5 20.6174 23.1321 21.7426 24.2574C22.8679 25.3826 23.5 26.9087 23.5 28.5V31.5M25 4.695C26.2906 5.02545 27.4346 5.77605 28.2515 6.82847C29.0684 7.88088 29.5118 9.17524 29.5118 10.5075C29.5118 11.8398 29.0684 13.1341 28.2515 14.1865C27.4346 15.2389 26.2906 15.9895 25 16.32M32.5 31.5V28.5C32.4924 27.1757 32.0469 25.8912 31.2329 24.8466C30.4189 23.802 29.2822 23.056 28 22.725M8.5 10.5C8.5 12.0913 9.13214 13.6174 10.2574 14.7426C11.3826 15.8679 12.9087 16.5 14.5 16.5C16.0913 16.5 17.6174 15.8679 18.7426 14.7426C19.8679 13.6174 20.5 12.0913 20.5 10.5C20.5 8.9087 19.8679 7.38258 18.7426 6.25736C17.6174 5.13214 16.0913 4.5 14.5 4.5C12.9087 4.5 11.3826 5.13214 10.2574 6.25736C9.13214 7.38258 8.5 8.9087 8.5 10.5Z" stroke="#050505" stroke-width="3" stroke-linecap="round" stroke-linejoin="round"/>
<path d="M5.88605 52.126C5.22338 52.126 4.64005 52.042 4.13605 51.874C3.63205 51.6967 3.20738 51.4353 2.86205 51.09C2.52605 50.7447 2.26938 50.3153 2.09205 49.802C1.91471 49.2887 1.82605 48.696 1.82605 48.024V42.76C1.82605 42.5173 1.88671 42.3353 2.00805 42.214C2.13871 42.0927 2.32071 42.032 2.55405 42.032C2.78738 42.032 2.96471 42.0927 3.08605 42.214C3.21671 42.3353 3.28205 42.5173 3.28205 42.76V47.996C3.28205 48.9573 3.50138 49.676 3.94005 50.152C4.38805 50.628 5.03671 50.866 5.88605 50.866C6.74471 50.866 7.39338 50.628 7.83205 50.152C8.27071 49.676 8.49005 48.9573 8.49005 47.996V42.76C8.49005 42.5173 8.55071 42.3353 8.67205 42.214C8.80271 42.0927 8.98005 42.032 9.20405 42.032C9.43738 42.032 9.61471 42.0927 9.73605 42.214C9.85738 42.3353 9.91805 42.5173 9.91805 42.76V48.024C9.91805 48.92 9.76405 49.676 9.45605 50.292C9.15738 50.8987 8.70938 51.356 8.11205 51.664C7.51471 51.972 6.77271 52.126 5.88605 52.126ZM14.4036 52.126C13.993 52.126 13.5683 52.0793 13.1296 51.986C12.7003 51.8927 12.3036 51.734 11.9396 51.51C11.8183 51.426 11.7343 51.3327 11.6876 51.23C11.641 51.1273 11.6223 51.0247 11.6316 50.922C11.6503 50.81 11.6923 50.7167 11.7576 50.642C11.8323 50.558 11.921 50.5067 12.0236 50.488C12.1356 50.4693 12.2523 50.4927 12.3736 50.558C12.7376 50.7633 13.0876 50.908 13.4236 50.992C13.7596 51.0667 14.091 51.104 14.4176 51.104C14.9123 51.104 15.2856 51.0153 15.5376 50.838C15.7896 50.6607 15.9156 50.4227 15.9156 50.124C15.9156 49.8813 15.8316 49.6947 15.6636 49.564C15.4956 49.424 15.2436 49.3167 14.9076 49.242L13.5776 48.976C12.999 48.8547 12.5603 48.64 12.2616 48.332C11.963 48.024 11.8136 47.632 11.8136 47.156C11.8136 46.7267 11.9303 46.3533 12.1636 46.036C12.397 45.7187 12.7236 45.476 13.1436 45.308C13.5636 45.1307 14.049 45.042 14.5996 45.042C15.0103 45.042 15.3976 45.0933 15.7616 45.196C16.1256 45.2987 16.4616 45.4527 16.7696 45.658C16.891 45.7233 16.9703 45.812 17.0076 45.924C17.045 46.0267 17.0496 46.1293 17.0216 46.232C17.003 46.3347 16.9563 46.428 16.8816 46.512C16.807 46.5867 16.7136 46.6333 16.6016 46.652C16.499 46.6613 16.3823 46.6333 16.2516 46.568C15.9716 46.3907 15.6916 46.2647 15.4116 46.19C15.141 46.1153 14.8703 46.078 14.5996 46.078C14.105 46.078 13.7316 46.1713 13.4796 46.358C13.237 46.5353 13.1156 46.778 13.1156 47.086C13.1156 47.3193 13.1903 47.5107 13.3396 47.66C13.489 47.8093 13.7223 47.9167 14.0396 47.982L15.3696 48.248C15.9763 48.3693 16.4336 48.5747 16.7416 48.864C17.059 49.1533 17.2176 49.5453 17.2176 50.04C17.2176 50.684 16.961 51.1927 16.4476 51.566C15.9343 51.9393 15.253 52.126 14.4036 52.126ZM21.9969 52.126C21.2502 52.126 20.6062 51.986 20.0649 51.706C19.5329 51.4167 19.1175 51.0107 18.8189 50.488C18.5295 49.956 18.3849 49.326 18.3849 48.598C18.3849 47.8887 18.5295 47.268 18.8189 46.736C19.1082 46.204 19.5049 45.7887 20.0089 45.49C20.5129 45.1913 21.0869 45.042 21.7309 45.042C22.2069 45.042 22.6315 45.1213 23.0049 45.28C23.3782 45.4293 23.6955 45.6533 23.9569 45.952C24.2275 46.2413 24.4282 46.596 24.5589 47.016C24.6989 47.436 24.7689 47.9073 24.7689 48.43C24.7689 48.5887 24.7222 48.71 24.6289 48.794C24.5355 48.8687 24.3955 48.906 24.2089 48.906H19.5049V48.038H23.8169L23.5789 48.234C23.5789 47.7673 23.5089 47.3707 23.3689 47.044C23.2382 46.7173 23.0375 46.47 22.7669 46.302C22.5055 46.1247 22.1789 46.036 21.7869 46.036C21.3482 46.036 20.9749 46.1387 20.6669 46.344C20.3682 46.5493 20.1395 46.834 19.9809 47.198C19.8222 47.562 19.7429 47.9867 19.7429 48.472V48.556C19.7429 49.3773 19.9342 49.998 20.3169 50.418C20.7089 50.8287 21.2735 51.034 22.0109 51.034C22.2909 51.034 22.5849 50.9967 22.8929 50.922C23.2102 50.8473 23.5089 50.7213 23.7889 50.544C23.9475 50.4507 24.0875 50.4087 24.2089 50.418C24.3395 50.4273 24.4422 50.4693 24.5169 50.544C24.6009 50.6187 24.6522 50.712 24.6709 50.824C24.6895 50.936 24.6709 51.0527 24.6149 51.174C24.5589 51.286 24.4609 51.3887 24.3209 51.482C24.0035 51.6967 23.6349 51.86 23.2149 51.972C22.7949 52.0747 22.3889 52.126 21.9969 52.126ZM27.0244 52.098C26.7911 52.098 26.6137 52.0373 26.4924 51.916C26.3711 51.7853 26.3104 51.608 26.3104 51.384V45.784C26.3104 45.5507 26.3711 45.3733 26.4924 45.252C26.6137 45.1307 26.7817 45.07 26.9964 45.07C27.2204 45.07 27.3884 45.1307 27.5004 45.252C27.6217 45.3733 27.6824 45.5507 27.6824 45.784V46.806H27.5424C27.6917 46.246 27.9671 45.8213 28.3684 45.532C28.7697 45.2427 29.2831 45.0747 29.9084 45.028C30.0764 45.0187 30.2071 45.0607 30.3004 45.154C30.4031 45.2473 30.4591 45.392 30.4684 45.588C30.4871 45.784 30.4451 45.9427 30.3424 46.064C30.2397 46.176 30.0811 46.2413 29.8664 46.26L29.6004 46.288C28.9937 46.344 28.5317 46.5353 28.2144 46.862C27.8971 47.1887 27.7384 47.6367 27.7384 48.206V51.384C27.7384 51.608 27.6777 51.7853 27.5564 51.916C27.4444 52.0373 27.2671 52.098 27.0244 52.098ZM33.8587 52.126C33.448 52.126 33.0234 52.0793 32.5847 51.986C32.1554 51.8927 31.7587 51.734 31.3947 51.51C31.2734 51.426 31.1894 51.3327 31.1427 51.23C31.096 51.1273 31.0774 51.0247 31.0867 50.922C31.1054 50.81 31.1474 50.7167 31.2127 50.642C31.2874 50.558 31.376 50.5067 31.4787 50.488C31.5907 50.4693 31.7074 50.4927 31.8287 50.558C32.1927 50.7633 32.5427 50.908 32.8787 50.992C33.2147 51.0667 33.546 51.104 33.8727 51.104C34.3674 51.104 34.7407 51.0153 34.9927 50.838C35.2447 50.6607 35.3707 50.4227 35.3707 50.124C35.3707 49.8813 35.2867 49.6947 35.1187 49.564C34.9507 49.424 34.6987 49.3167 34.3627 49.242L33.0327 48.976C32.454 48.8547 32.0154 48.64 31.7167 48.332C31.418 48.024 31.2687 47.632 31.2687 47.156C31.2687 46.7267 31.3854 46.3533 31.6187 46.036C31.852 45.7187 32.1787 45.476 32.5987 45.308C33.0187 45.1307 33.504 45.042 34.0547 45.042C34.4654 45.042 34.8527 45.0933 35.2167 45.196C35.5807 45.2987 35.9167 45.4527 36.2247 45.658C36.346 45.7233 36.4254 45.812 36.4627 45.924C36.5 46.0267 36.5047 46.1293 36.4767 46.232C36.458 46.3347 36.4114 46.428 36.3367 46.512C36.262 46.5867 36.1687 46.6333 36.0567 46.652C35.954 46.6613 35.8374 46.6333 35.7067 46.568C35.4267 46.3907 35.1467 46.2647 34.8667 46.19C34.596 46.1153 34.3254 46.078 34.0547 46.078C33.56 46.078 33.1867 46.1713 32.9347 46.358C32.692 46.5353 32.5707 46.778 32.5707 47.086C32.5707 47.3193 32.6454 47.5107 32.7947 47.66C32.944 47.8093 33.1774 47.9167 33.4947 47.982L34.8247 48.248C35.4314 48.3693 35.8887 48.5747 36.1967 48.864C36.514 49.1533 36.6727 49.5453 36.6727 50.04C36.6727 50.684 36.416 51.1927 35.9027 51.566C35.3894 51.9393 34.708 52.126 33.8587 52.126Z" fill="#050505"/>
</svg>
